# xmcd
#
# Track frame offsets:
#	150
#	16104
#	37696
#	63810
#	82292
#	97857
#	141197
#	155444
#	173312
#	196520
#	213902
#	228501
#	243063
#	259503
#	280028
#
# Disc length: 3911 seconds
#
# Revision: 2
# Processed by: cddbd v1.5.2PL0 Copyright (c) Steve Scherf et al.
# Submitted via: audiograbber 1.83.01
#
DISCID=a80f450f
DTITLE=Mungo Jerry  - The Dawn Singles Collection CD1
DYEAR=1900
DGENRE=Rock
TTITLE0=In The Summertime
TTITLE1=Mighty Man
TTITLE2=Dust Pneumonia Blues
TTITLE3=Baby Jump
TTITLE4=The Man Behind The Piano
TTITLE5=Live For Hollywood
TTITLE6=Lady Rose
TTITLE7=Have A Whiff On Me
TTITLE8=Milk Cow Blues
TTITLE9=Little Louis
TTITLE10=She Rowed
TTITLE11=You Don't Have To Be In The Army To Fight In The War
TTITLE12=The Sun Is Shining
TTITLE13=O'Reilly
TTITLE14=We Shall Be Free
EXTD=
EXTT0=
EXTT1=
EXTT2=
EXTT3=
EXTT4=
EXTT5=
EXTT6=
EXTT7=
EXTT8=
EXTT9=
EXTT10=
EXTT11=
EXTT12=
EXTT13=
EXTT14=
PLAYORDER=
